ffmpeg started on 2025-06-06 at 15:10:28
Report written to "D:\Convert\FFMetrics\reports\psnr_report-6.txt"
Log level: 32
Command line:
ffmpeg -hide_banner -nostdin -i "G:\\\xc0\xed\xe8\xec\xe5\\\xce\xed\xe3\xee\xe8\xed\xe3\xe8\\!_36_\xce\xf1\xe5\xed\xfc_2024\\DreamCast\\\xcd\xe8\xed\xe0 \xe2 \xea\xee\xf0\xee\xeb\xe5\xe2\xf1\xf2\xe2\xe5 \xe7\xe2\xb8\xe7\xe4\\[DC] Hoshi Furu Oukoku no Nina - 02_Telegram_HEVC.mkv" -i "G:\\\xc0\xed\xe8\xec\xe5\\\xce\xed\xe3\xee\xe8\xed\xe3\xe8\\!_36_\xce\xf1\xe5\xed\xfc_2024\\DreamCast\\\xcd\xe8\xed\xe0 \xe2 \xea\xee\xf0\xee\xeb\xe5\xe2\xf1\xf2\xe2\xe5 \xe7\xe2\xb8\xe7\xe4\\[DC] Hoshi Furu Oukoku no Nina - 02_Telegram.mp4" -lavfi "[0:v]settb=AVTB,setpts=PTS-STARTPTS,format=pix_fmts=yuv420p10,fps=24000/1001,scale=1920:1080:flags=bicubic[main];[1:v]settb=AVTB,setpts=PTS-STARTPTS,format=pix_fmts=yuv420p,fps=24000/1001,scale=1920:1080:flags=bicubic[ref];[main][ref]psnr=eof_action=endall:stats_file='D\\:/Convert/FFMetrics/logs/psnr_logfile-6.txt'" -f null -
Input #0, matroska,webm, from 'G:\Аниме\Онгоинги\!_36_Осень_2024\DreamCast\Нина в королевстве звёзд\[DC] Hoshi Furu Oukoku no Nina - 02_Telegram_HEVC.mkv':
  Metadata:
    COMPATIBLE_BRANDS: isomiso2avc1mp41
    MAJOR_BRAND     : isom
    MINOR_VERSION   : 512
    ENCODER         : Lavf61.7.100
  Duration: 00:23:46.69, start: -0.021000, bitrate: 846 kb/s
  Stream #0:0: Video: hevc (Main 10), yuv420p10le(tv, bt709, progressive), 1920x1080 [SAR 1:1 DAR 16:9], 23.98 fps, 23.98 tbr, 1k tbn (default)
      Metadata:
        HANDLER_NAME    : VideoHandler
        VENDOR_ID       : [0][0][0][0]
        ENCODER         : Lavc61.19.100 libx265
        BPS             : 647889
        DURATION        : 00:23:46.591708333
        NUMBER_OF_FRAMES: 34204
        NUMBER_OF_BYTES : 115534212
        _STATISTICS_WRITING_APP: mkvpropedit v66.0.0 ('Josie') 64-bit
        _STATISTICS_WRITING_DATE_UTC: 2025-05-31 17:07:13
        _STATISTICS_TAGS: BPS DURATION NUMBER_OF_FRAMES NUMBER_OF_BYTES
  Stream #0:1: Audio: aac (LC), 48000 Hz, stereo, fltp (default)
      Metadata:
        HANDLER_NAME    : SoundHandler
        VENDOR_ID       : [0][0][0][0]
        ENCODER         : Lavc61.19.100 aac
        BPS             : 194208
        DURATION        : 00:23:46.688000000
        NUMBER_OF_FRAMES: 66877
        NUMBER_OF_BYTES : 34634387
        _STATISTICS_WRITING_APP: mkvpropedit v66.0.0 ('Josie') 64-bit
        _STATISTICS_WRITING_DATE_UTC: 2025-05-31 17:07:13
        _STATISTICS_TAGS: BPS DURATION NUMBER_OF_FRAMES NUMBER_OF_BYTES
Input #1, mov,mp4,m4a,3gp,3g2,mj2, from 'G:\Аниме\Онгоинги\!_36_Осень_2024\DreamCast\Нина в королевстве звёзд\[DC] Hoshi Furu Oukoku no Nina - 02_Telegram.mp4':
  Metadata:
    major_brand     : isom
    minor_version   : 512
    compatible_brands: isomiso2avc1mp41
    encoder         : Lavf61.1.100
  Duration: 00:23:46.66, start: 0.000000, bitrate: 3842 kb/s
  Stream #1:0[0x1](und): Video: h264 (High) (avc1 / 0x31637661), yuv420p(tv, bt709, progressive), 1920x1080 [SAR 1:1 DAR 16:9], 3694 kb/s, 23.98 fps, 23.98 tbr, 24k tbn (default)
      Metadata:
        handler_name    : VideoHandler
        vendor_id       : [0][0][0][0]
        encoder         : Lavc61.3.100 h264_qsv
  Stream #1:1[0x2](und): Audio: aac (HE-AACv2) (mp4a / 0x6134706D), 48000 Hz, stereo, fltp, 144 kb/s (default)
      Metadata:
        handler_name    : SoundHandler
        vendor_id       : [0][0][0][0]
Stream mapping:
  Stream #0:0 (hevc) -> settb:default
  Stream #1:0 (h264) -> settb:default
  psnr:default -> Stream #0:0 (wrapped_avframe)
  Stream #0:1 -> #0:1 (aac (native) -> pcm_s16le (native))
Output #0, null, to 'pipe:':
  Metadata:
    COMPATIBLE_BRANDS: isomiso2avc1mp41
    MAJOR_BRAND     : isom
    MINOR_VERSION   : 512
    encoder         : Lavf61.7.100
  Stream #0:0: Video: wrapped_avframe, yuv420p10le(tv, bt709, progressive), 1920x1080 [SAR 1:1 DAR 16:9], q=2-31, 200 kb/s, 23.98 fps, 23.98 tbn
      Metadata:
        encoder         : Lavc61.19.100 wrapped_avframe
  Stream #0:1: Audio: pcm_s16le, 48000 Hz, stereo, s16, 1536 kb/s (default)
      Metadata:
        HANDLER_NAME    : SoundHandler
        VENDOR_ID       : [0][0][0][0]
        _STATISTICS_TAGS: BPS DURATION NUMBER_OF_FRAMES NUMBER_OF_BYTES
        BPS             : 194208
        DURATION        : 00:23:46.688000000
        NUMBER_OF_FRAMES: 66877
        NUMBER_OF_BYTES : 34634387
        _STATISTICS_WRITING_APP: mkvpropedit v66.0.0 ('Josie') 64-bit
        _STATISTICS_WRITING_DATE_UTC: 2025-05-31 17:07:13
        encoder         : Lavc61.19.100 pcm_s16le
frame=  174 fps=0.0 q=-0.0 size=N/A time=00:00:07.25 bitrate=N/A speed=14.2x    frame=  395 fps=381 q=-0.0 size=N/A time=00:00:16.47 bitrate=N/A speed=15.9x    frame=  642 fps=415 q=-0.0 size=N/A time=00:00:26.77 bitrate=N/A speed=17.3x    frame=  886 fps=431 q=-0.0 size=N/A time=00:00:36.95 bitrate=N/A speed=  18x    frame= 1117 fps=432 q=-0.0 size=N/A time=00:00:46.58 bitrate=N/A speed=  18x    frame= 1349 fps=436 q=-0.0 size=N/A time=00:00:56.26 bitrate=N/A speed=18.2x    frame= 1594 fps=442 q=-0.0 size=N/A time=00:01:06.48 bitrate=N/A speed=18.4x    frame= 1824 fps=441 q=-0.0 size=N/A time=00:01:16.07 bitrate=N/A speed=18.4x    frame= 2079 fps=448 q=-0.0 size=N/A time=00:01:26.71 bitrate=N/A speed=18.7x    frame= 2312 fps=449 q=-0.0 size=N/A time=00:01:36.42 bitrate=N/A speed=18.7x    frame= 2544 fps=448 q=-0.0 size=N/A time=00:01:46.10 bitrate=N/A speed=18.7x    frame= 2707 fps=438 q=-0.0 size=N/A time=00:01:52.90 bitrate=N/A speed=18.2x    frame= 2907 fps=434 q=-0.0 size=N/A time=00:02:01.24 bitrate=N/A speed=18.1x    frame= 3093 fps=428 q=-0.0 size=N/A time=00:02:09.00 bitrate=N/A speed=17.9x    frame= 3298 fps=427 q=-0.0 size=N/A time=00:02:17.55 bitrate=N/A speed=17.8x    frame= 3462 fps=419 q=-0.0 size=N/A time=00:02:24.39 bitrate=N/A speed=17.5x    frame= 3650 fps=416 q=-0.0 size=N/A time=00:02:32.23 bitrate=N/A speed=17.4x    frame= 3825 fps=412 q=-0.0 size=N/A time=00:02:39.53 bitrate=N/A speed=17.2x    frame= 4057 fps=414 q=-0.0 size=N/A time=00:02:49.21 bitrate=N/A speed=17.3x    frame= 4253 fps=412 q=-0.0 size=N/A time=00:02:57.38 bitrate=N/A speed=17.2x    frame= 4493 fps=415 q=-0.0 size=N/A time=00:03:07.39 bitrate=N/A speed=17.3x    frame= 4727 fps=416 q=-0.0 size=N/A time=00:03:17.15 bitrate=N/A speed=17.4x    frame= 4967 fps=419 q=-0.0 size=N/A time=00:03:27.16 bitrate=N/A speed=17.5x    frame= 5245 fps=424 q=-0.0 size=N/A time=00:03:38.76 bitrate=N/A speed=17.7x    frame= 5495 fps=426 q=-0.0 size=N/A time=00:03:49.18 bitrate=N/A speed=17.8x    frame= 5727 fps=427 q=-0.0 size=N/A time=00:03:58.86 bitrate=N/A speed=17.8x    frame= 5968 fps=429 q=-0.0 size=N/A time=00:04:08.91 bitrate=N/A speed=17.9x    frame= 6229 fps=431 q=-0.0 size=N/A time=00:04:19.80 bitrate=N/A speed=  18x    frame= 6481 fps=434 q=-0.0 size=N/A time=00:04:30.31 bitrate=N/A speed=18.1x    frame= 6755 fps=437 q=-0.0 size=N/A time=00:04:41.73 bitrate=N/A speed=18.2x    frame= 7012 fps=439 q=-0.0 size=N/A time=00:04:52.45 bitrate=N/A speed=18.3x    frame= 7264 fps=440 q=-0.0 size=N/A time=00:05:02.96 bitrate=N/A speed=18.4x    frame= 7512 fps=441 q=-0.0 size=N/A time=00:05:13.31 bitrate=N/A speed=18.4x    frame= 7780 fps=444 q=-0.0 size=N/A time=00:05:24.49 bitrate=N/A speed=18.5x    frame= 8048 fps=446 q=-0.0 size=N/A time=00:05:35.66 bitrate=N/A speed=18.6x    frame= 8288 fps=446 q=-0.0 size=N/A time=00:05:45.67 bitrate=N/A speed=18.6x    frame= 8500 fps=446 q=-0.0 size=N/A time=00:05:54.52 bitrate=N/A speed=18.6x    frame= 8752 fps=446 q=-0.0 size=N/A time=00:06:05.03 bitrate=N/A speed=18.6x    frame= 9008 fps=448 q=-0.0 size=N/A time=00:06:15.70 bitrate=N/A speed=18.7x    frame= 9282 fps=450 q=-0.0 size=N/A time=00:06:27.13 bitrate=N/A speed=18.8x    frame= 9548 fps=452 q=-0.0 size=N/A time=00:06:38.23 bitrate=N/A speed=18.8x    frame= 9818 fps=453 q=-0.0 size=N/A time=00:06:49.49 bitrate=N/A speed=18.9x    frame=10096 fps=455 q=-0.0 size=N/A time=00:07:01.08 bitrate=N/A speed=  19x    frame=10359 fps=457 q=-0.0 size=N/A time=00:07:12.05 bitrate=N/A speed=  19x    frame=10627 fps=458 q=-0.0 size=N/A time=00:07:23.23 bitrate=N/A speed=19.1x    frame=10889 fps=459 q=-0.0 size=N/A time=00:07:34.16 bitrate=N/A speed=19.1x    frame=11144 fps=460 q=-0.0 size=N/A time=00:07:44.79 bitrate=N/A speed=19.2x    frame=11404 fps=461 q=-0.0 size=N/A time=00:07:55.64 bitrate=N/A speed=19.2x    frame=11636 fps=461 q=-0.0 size=N/A time=00:08:05.31 bitrate=N/A speed=19.2x    frame=11881 fps=461 q=-0.0 size=N/A time=00:08:15.53 bitrate=N/A speed=19.2x    frame=12132 fps=461 q=-0.0 size=N/A time=00:08:26.00 bitrate=N/A speed=19.2x    frame=12369 fps=461 q=-0.0 size=N/A time=00:08:35.89 bitrate=N/A speed=19.2x    frame=12627 fps=462 q=-0.0 size=N/A time=00:08:46.65 bitrate=N/A speed=19.3x    frame=12878 fps=463 q=-0.0 size=N/A time=00:08:57.11 bitrate=N/A speed=19.3x    frame=13108 fps=462 q=-0.0 size=N/A time=00:09:06.71 bitrate=N/A speed=19.3x    frame=13355 fps=463 q=-0.0 size=N/A time=00:09:17.01 bitrate=N/A speed=19.3x    frame=13616 fps=463 q=-0.0 size=N/A time=00:09:27.90 bitrate=N/A speed=19.3x    frame=13861 fps=463 q=-0.0 size=N/A time=00:09:38.11 bitrate=N/A speed=19.3x    frame=14118 fps=464 q=-0.0 size=N/A time=00:09:48.83 bitrate=N/A speed=19.4x    frame=14365 fps=464 q=-0.0 size=N/A time=00:09:59.14 bitrate=N/A speed=19.4x    frame=14602 fps=464 q=-0.0 size=N/A time=00:10:09.02 bitrate=N/A speed=19.4x    frame=14864 fps=465 q=-0.0 size=N/A time=00:10:19.95 bitrate=N/A speed=19.4x    frame=15124 fps=466 q=-0.0 size=N/A time=00:10:30.79 bitrate=N/A speed=19.4x    frame=15378 fps=466 q=-0.0 size=N/A time=00:10:41.39 bitrate=N/A speed=19.4x    frame=15615 fps=466 q=-0.0 size=N/A time=00:10:51.27 bitrate=N/A speed=19.4x    frame=15868 fps=466 q=-0.0 size=N/A time=00:11:01.82 bitrate=N/A speed=19.4x    frame=16124 fps=467 q=-0.0 size=N/A time=00:11:12.50 bitrate=N/A speed=19.5x    frame=16355 fps=466 q=-0.0 size=N/A time=00:11:22.13 bitrate=N/A speed=19.5x    frame=16613 fps=467 q=-0.0 size=N/A time=00:11:32.90 bitrate=N/A speed=19.5x    frame=16879 fps=468 q=-0.0 size=N/A time=00:11:43.99 bitrate=N/A speed=19.5x    frame=17123 fps=468 q=-0.0 size=N/A time=00:11:54.17 bitrate=N/A speed=19.5x    frame=17369 fps=468 q=-0.0 size=N/A time=00:12:04.43 bitrate=N/A speed=19.5x    frame=17627 fps=468 q=-0.0 size=N/A time=00:12:15.19 bitrate=N/A speed=19.5x    frame=17883 fps=469 q=-0.0 size=N/A time=00:12:25.87 bitrate=N/A speed=19.5x    frame=18094 fps=468 q=-0.0 size=N/A time=00:12:34.67 bitrate=N/A speed=19.5x    frame=18320 fps=467 q=-0.0 size=N/A time=00:12:44.09 bitrate=N/A speed=19.5x    frame=18560 fps=468 q=-0.0 size=N/A time=00:12:54.10 bitrate=N/A speed=19.5x    frame=18822 fps=468 q=-0.0 size=N/A time=00:13:05.03 bitrate=N/A speed=19.5x    frame=19049 fps=468 q=-0.0 size=N/A time=00:13:14.50 bitrate=N/A speed=19.5x    frame=19314 fps=468 q=-0.0 size=N/A time=00:13:25.55 bitrate=N/A speed=19.5x    frame=19577 fps=469 q=-0.0 size=N/A time=00:13:36.52 bitrate=N/A speed=19.5x    frame=19828 fps=469 q=-0.0 size=N/A time=00:13:46.99 bitrate=N/A speed=19.6x    frame=20055 fps=469 q=-0.0 size=N/A time=00:13:56.46 bitrate=N/A speed=19.5x    frame=20294 fps=469 q=-0.0 size=N/A time=00:14:06.42 bitrate=N/A speed=19.5x    frame=20544 fps=469 q=-0.0 size=N/A time=00:14:16.85 bitrate=N/A speed=19.5x    frame=20789 fps=469 q=-0.0 size=N/A time=00:14:27.07 bitrate=N/A speed=19.6x    frame=21052 fps=469 q=-0.0 size=N/A time=00:14:38.04 bitrate=N/A speed=19.6x    frame=21301 fps=469 q=-0.0 size=N/A time=00:14:48.42 bitrate=N/A speed=19.6x    frame=21550 fps=470 q=-0.0 size=N/A time=00:14:58.81 bitrate=N/A speed=19.6x    frame=21817 fps=470 q=-0.0 size=N/A time=00:15:09.95 bitrate=N/A speed=19.6x    frame=22088 fps=471 q=-0.0 size=N/A time=00:15:21.25 bitrate=N/A speed=19.6x    frame=22315 fps=470 q=-0.0 size=N/A time=00:15:30.72 bitrate=N/A speed=19.6x    frame=22576 fps=471 q=-0.0 size=N/A time=00:15:41.60 bitrate=N/A speed=19.6x    frame=22826 fps=471 q=-0.0 size=N/A time=00:15:52.03 bitrate=N/A speed=19.6x    frame=23061 fps=471 q=-0.0 size=N/A time=00:16:01.83 bitrate=N/A speed=19.6x    frame=23293 fps=471 q=-0.0 size=N/A time=00:16:11.51 bitrate=N/A speed=19.6x    frame=23561 fps=471 q=-0.0 size=N/A time=00:16:22.69 bitrate=N/A speed=19.6x    frame=23844 fps=472 q=-0.0 size=N/A time=00:16:34.49 bitrate=N/A speed=19.7x    frame=24107 fps=472 q=-0.0 size=N/A time=00:16:45.46 bitrate=N/A speed=19.7x    frame=24349 fps=472 q=-0.0 size=N/A time=00:16:55.55 bitrate=N/A speed=19.7x    frame=24597 fps=472 q=-0.0 size=N/A time=00:17:05.89 bitrate=N/A speed=19.7x    frame=24856 fps=473 q=-0.0 size=N/A time=00:17:16.70 bitrate=N/A speed=19.7x    frame=25127 fps=473 q=-0.0 size=N/A time=00:17:28.00 bitrate=N/A speed=19.7x    frame=25382 fps=473 q=-0.0 size=N/A time=00:17:38.64 bitrate=N/A speed=19.7x    frame=25649 fps=474 q=-0.0 size=N/A time=00:17:49.77 bitrate=N/A speed=19.8x    frame=25903 fps=474 q=-0.0 size=N/A time=00:18:00.37 bitrate=N/A speed=19.8x    frame=26161 fps=474 q=-0.0 size=N/A time=00:18:11.13 bitrate=N/A speed=19.8x    frame=26430 fps=475 q=-0.0 size=N/A time=00:18:22.35 bitrate=N/A speed=19.8x    frame=26690 fps=475 q=-0.0 size=N/A time=00:18:33.19 bitrate=N/A speed=19.8x    frame=26944 fps=475 q=-0.0 size=N/A time=00:18:43.78 bitrate=N/A speed=19.8x    frame=27216 fps=475 q=-0.0 size=N/A time=00:18:55.13 bitrate=N/A speed=19.8x    frame=27491 fps=476 q=-0.0 size=N/A time=00:19:06.60 bitrate=N/A speed=19.9x    frame=27742 fps=476 q=-0.0 size=N/A time=00:19:17.07 bitrate=N/A speed=19.9x    frame=27965 fps=476 q=-0.0 size=N/A time=00:19:26.37 bitrate=N/A speed=19.8x    frame=28213 fps=476 q=-0.0 size=N/A time=00:19:36.71 bitrate=N/A speed=19.8x    frame=28424 fps=475 q=-0.0 size=N/A time=00:19:45.51 bitrate=N/A speed=19.8x    frame=28673 fps=475 q=-0.0 size=N/A time=00:19:55.90 bitrate=N/A speed=19.8x    frame=28925 fps=475 q=-0.0 size=N/A time=00:20:06.41 bitrate=N/A speed=19.8x    frame=29181 fps=476 q=-0.0 size=N/A time=00:20:17.09 bitrate=N/A speed=19.8x    frame=29451 fps=476 q=-0.0 size=N/A time=00:20:28.35 bitrate=N/A speed=19.9x    frame=29708 fps=476 q=-0.0 size=N/A time=00:20:39.07 bitrate=N/A speed=19.9x    frame=29985 fps=477 q=-0.0 size=N/A time=00:20:50.62 bitrate=N/A speed=19.9x    frame=30257 fps=477 q=-0.0 size=N/A time=00:21:01.96 bitrate=N/A speed=19.9x    frame=30488 fps=477 q=-0.0 size=N/A time=00:21:11.60 bitrate=N/A speed=19.9x    frame=30771 fps=477 q=-0.0 size=N/A time=00:21:23.40 bitrate=N/A speed=19.9x    frame=31037 fps=478 q=-0.0 size=N/A time=00:21:34.50 bitrate=N/A speed=19.9x    frame=31305 fps=478 q=-0.0 size=N/A time=00:21:45.67 bitrate=N/A speed=19.9x    frame=31571 fps=478 q=-0.0 size=N/A time=00:21:56.77 bitrate=N/A speed=19.9x    frame=31821 fps=478 q=-0.0 size=N/A time=00:22:07.20 bitrate=N/A speed=  20x    frame=32076 fps=479 q=-0.0 size=N/A time=00:22:17.83 bitrate=N/A speed=  20x    frame=32332 fps=479 q=-0.0 size=N/A time=00:22:28.51 bitrate=N/A speed=  20x    frame=32583 fps=479 q=-0.0 size=N/A time=00:22:38.98 bitrate=N/A speed=  20x    frame=32827 fps=479 q=-0.0 size=N/A time=00:22:49.15 bitrate=N/A speed=  20x    frame=33062 fps=479 q=-0.0 size=N/A time=00:22:58.96 bitrate=N/A speed=  20x    frame=33317 fps=479 q=-0.0 size=N/A time=00:23:09.59 bitrate=N/A speed=  20x    frame=33564 fps=479 q=-0.0 size=N/A time=00:23:19.89 bitrate=N/A speed=  20x    frame=33804 fps=479 q=-0.0 size=N/A time=00:23:29.90 bitrate=N/A speed=  20x    frame=34058 fps=479 q=-0.0 size=N/A time=00:23:40.50 bitrate=N/A speed=  20x    [Parsed_psnr_10 @ 00000274e531d740] PSNR y:49.068202 u:50.732172 v:51.130517 average:49.603938 min:43.283549 max:inf
[out#0/null @ 00000274e4db4680] video:14697KiB audio:267508KiB subtitle:0KiB other streams:0KiB global headers:0KiB muxing overhead: unknown
frame=34204 fps=479 q=-0.0 Lsize=N/A time=00:23:46.59 bitrate=N/A speed=  20x    
